<svg width="633" height="223" viewBox="0 0 633 223" fill="none" xmlns="http://www.w3.org/2000/svg">
<g clip-path="url(#clip0_418_4)">
<mask id="mask0_418_4" style="mask-type:luminance" maskUnits="userSpaceOnUse" x="0" y="0" width="633" height="223">
<path d="M0 0V223H633V0H0Z" fill="white"/>
</mask>
<g mask="url(#mask0_418_4)">
<mask id="mask1_418_4" style="mask-type:luminance" maskUnits="userSpaceOnUse" x="20" y="28" width="164" height="165">
<path d="M183.848 28.5184H20V192.993H183.848V28.5184Z" fill="white"/>
</mask>
<g mask="url(#mask1_418_4)">
<path d="M35.7578 61.4673C39.1153 61.4673 42.4281 61.5568 45.7857 61.915C54.0228 62.676 62.2153 64.2429 70.3182 66.2574C78.4211 68.3167 86.3897 70.7789 94.2687 73.5993C102.193 76.4196 109.4 79.24 116.877 81.9708C124.263 84.7016 131.515 87.3876 138.633 89.7156C145.751 92.0435 152.735 94.058 159.45 95.401C166.121 96.7441 172.567 97.4603 178.432 97.2365C179.909 97.2365 181.342 97.1022 182.729 96.9231C182.506 95.5801 182.237 94.2371 181.924 92.9388H181.879C176.551 92.2225 171 91.0586 165.27 89.5365C158.376 87.7458 151.258 85.4626 144.006 82.7318C136.798 79.9562 129.456 76.8225 122.204 73.2411C118.578 71.4504 114.996 69.5702 111.415 67.5557C109.624 66.5708 107.834 65.5859 106.132 64.5115L100.939 61.5121C94.0896 57.5725 87.1059 53.9464 80.1222 50.8126C73.1385 47.6341 66.1996 44.9033 59.3949 42.9783C58.3205 42.7097 57.2909 42.4411 56.2164 42.1725C48.3822 47.3655 41.4432 53.9464 35.7578 61.4673Z" fill="white"/>
<path d="M107.877 49.7829L113.115 53.0509C114.816 54.1253 116.473 55.1549 118.174 56.2293C121.487 58.3782 124.844 60.4822 128.157 62.5415C134.783 66.7049 141.363 70.6892 147.899 74.2706C154.435 77.8967 160.882 81.12 167.194 83.627C171.805 85.5072 176.327 86.9398 180.669 87.9246C170.775 53.5881 139.125 28.5184 101.655 28.5184C92.3879 28.5184 83.4792 30.0404 75.1973 32.9056C78.913 34.3381 82.5839 35.9945 86.2548 37.7852C93.6414 41.4114 100.894 45.4852 107.877 49.7829Z" fill="white"/>
<path d="M163.21 129.424C157.256 131.842 150.899 134.08 144.228 136.094C137.513 138.064 130.529 139.765 123.367 141.108C121.576 141.422 119.785 141.735 117.95 142.048C116.159 142.317 114.324 142.586 112.488 142.81C110.608 143.033 108.907 143.257 107.027 143.481C105.37 143.66 103.624 143.884 101.878 144.108C94.8951 145.003 88.0009 146.078 81.3753 147.555C74.7945 148.987 68.3928 150.778 62.7521 153.061C59.9318 154.225 57.2905 155.434 54.9179 156.777C52.59 158.165 50.5308 159.687 48.9639 161.164C47.397 162.731 46.2778 164.253 45.651 165.686C45.0243 167.118 44.8004 168.461 44.89 169.894C44.89 170.028 44.9347 170.162 44.9347 170.297C59.708 184.354 79.6294 192.994 101.61 192.994C144.452 192.994 179.639 160.224 183.489 118.367C182.191 119.351 180.803 120.292 179.415 121.232C174.625 124.276 169.119 126.962 163.21 129.424Z" fill="white"/>
<path d="M46.2789 141.869C49.5917 139.989 52.994 138.378 56.4859 137.079C63.4696 134.438 70.7219 132.603 78.0189 131.215C85.3608 129.872 92.8369 128.932 100.224 128.394C102.104 128.26 103.94 128.126 105.82 128.036C107.61 127.902 109.356 127.857 111.147 127.723C114.684 127.499 118.176 127.32 121.667 127.096C128.651 126.648 135.5 126.246 142.126 125.574C148.752 124.903 155.109 123.962 161.018 122.575C166.838 121.142 172.254 119.262 176.821 116.8C179.507 115.322 181.969 113.621 183.849 111.786C183.849 111.428 183.849 111.069 183.849 110.756C181.342 111.875 178.656 112.815 175.881 113.711C169.747 115.636 163.032 117.113 155.914 118.322C148.796 119.575 141.231 120.56 133.396 121.187C125.517 121.903 117.415 122.172 109.222 121.948C107.208 121.948 105.104 121.858 103.044 121.724C100.985 121.679 98.9252 121.545 96.8212 121.366C94.7171 121.187 92.7474 121.008 90.6881 120.829C88.6288 120.65 86.7485 120.471 84.734 120.292C76.855 119.62 69.0207 119.172 61.4103 119.128C53.7998 119.038 46.4133 119.351 39.5639 120.247C36.1616 120.694 32.8935 121.232 29.8941 122.037C26.85 122.799 24.1192 123.694 21.7913 124.768C21.4331 124.947 21.075 125.126 20.7168 125.305C22.5971 135.915 26.5366 145.809 32.0877 154.583C33.4755 152.39 35.1319 150.465 36.9226 148.764C39.8325 145.988 43.0109 143.75 46.2789 141.869Z" fill="white"/>
<path d="M178.834 102.967C172.477 103.593 165.673 103.683 158.465 103.325C151.303 103.056 143.737 102.34 135.992 101.31C128.247 100.281 120.279 98.8033 112.31 96.8783C110.34 96.4306 108.371 95.8934 106.401 95.3562C104.431 94.819 102.417 94.2818 100.447 93.655C98.4323 93.0283 96.5073 92.4911 94.5376 91.8643L88.8074 90.0736C81.2417 87.7457 73.6312 85.6417 66.1103 84.03C58.6342 82.3736 51.2028 81.1649 44.2191 80.6725C37.2802 80.1353 30.6546 80.2696 25.2378 81.5231C25.0587 81.5678 24.8796 81.6126 24.7006 81.6574C22.4174 87.7457 20.8058 94.237 20 100.952C21.4773 100.504 22.9546 100.102 24.432 99.7434C28.5506 98.7585 32.7139 98.0422 36.8773 97.5946C45.204 96.6992 53.6202 96.6097 62.0365 96.9678C70.408 97.4155 78.8242 98.2213 87.1062 99.43C95.4777 100.639 103.088 101.937 110.922 103.146C118.667 104.444 126.278 105.697 133.709 106.727C141.14 107.757 148.348 108.473 155.153 108.607C161.957 108.742 168.404 108.294 174.044 107.04C177.581 106.279 180.804 105.205 183.58 103.817C183.58 103.325 183.49 102.832 183.49 102.295C181.968 102.564 180.401 102.788 178.834 102.967Z" fill="white"/>
</g>
<mask id="mask2_418_4" style="mask-type:luminance" maskUnits="userSpaceOnUse" x="219" y="149" width="268" height="28">
<path d="M486.319 149H219V176.037H486.319V149Z" fill="white"/>
</mask>
<g mask="url(#mask2_418_4)">
<path d="M219 175.794V151.499H223.512V175.794H219ZM243.642 157.052C245.979 157.052 247.854 157.735 249.265 159.1C250.677 160.465 251.382 162.49 251.382 165.174V175.794H247.044V165.729C247.044 164.109 246.662 162.889 245.898 162.067C245.135 161.246 244.047 160.835 242.636 160.835C241.039 160.835 239.778 161.315 238.853 162.276C237.927 163.236 237.464 164.618 237.464 166.423V175.794H233.126V157.26H237.256V159.655C237.974 158.799 238.876 158.151 239.963 157.712C241.051 157.272 242.277 157.052 243.642 157.052ZM270.298 171.699L271.513 174.788C271.004 175.204 270.385 175.517 269.656 175.725C268.927 175.933 268.158 176.037 267.348 176.037C265.312 176.037 263.738 175.505 262.628 174.441C261.517 173.376 260.962 171.826 260.962 169.79V160.87H257.907V157.399H260.962V153.165H265.3V157.399H270.263V160.87H265.3V169.686C265.3 170.588 265.52 171.277 265.959 171.751C266.399 172.225 267.035 172.462 267.868 172.462C268.84 172.462 269.65 172.208 270.298 171.699ZM295.357 166.631C295.357 166.932 295.334 167.36 295.287 167.916H280.745C280.999 169.281 281.665 170.363 282.741 171.161C283.817 171.959 285.153 172.358 286.749 172.358C288.786 172.358 290.463 171.687 291.782 170.345L294.107 173.018C293.274 174.013 292.222 174.765 290.949 175.274C289.676 175.783 288.242 176.037 286.645 176.037C284.609 176.037 282.816 175.632 281.266 174.822C279.715 174.013 278.518 172.885 277.673 171.438C276.829 169.992 276.406 168.355 276.406 166.527C276.406 164.723 276.817 163.097 277.639 161.651C278.46 160.205 279.6 159.077 281.057 158.267C282.515 157.457 284.158 157.052 285.986 157.052C287.791 157.052 289.405 157.451 290.828 158.25C292.251 159.048 293.361 160.17 294.159 161.616C294.958 163.062 295.357 164.734 295.357 166.631ZM285.986 160.523C284.598 160.523 283.423 160.934 282.463 161.755C281.503 162.576 280.918 163.67 280.71 165.035H291.227C291.042 163.693 290.475 162.605 289.526 161.772C288.577 160.939 287.397 160.523 285.986 160.523ZM307.123 159.968C308.372 158.024 310.57 157.052 313.717 157.052V161.182C313.347 161.113 313.012 161.078 312.711 161.078C311.022 161.078 309.703 161.57 308.754 162.553C307.805 163.537 307.331 164.954 307.331 166.805V175.794H302.993V157.26H307.123V159.968ZM331.383 157.052C333.72 157.052 335.595 157.735 337.006 159.1C338.418 160.465 339.123 162.49 339.123 165.174V175.794H334.785V165.729C334.785 164.109 334.403 162.889 333.639 162.067C332.876 161.246 331.788 160.835 330.377 160.835C328.78 160.835 327.519 161.315 326.594 162.276C325.668 163.236 325.206 164.618 325.206 166.423V175.794H320.867V157.26H324.997V159.655C325.715 158.799 326.617 158.151 327.704 157.712C328.792 157.272 330.018 157.052 331.383 157.052ZM355.193 157.052C357.923 157.052 360.012 157.706 361.458 159.013C362.904 160.321 363.627 162.293 363.627 164.931V175.794H359.531V173.538C358.999 174.348 358.241 174.967 357.258 175.395C356.275 175.823 355.089 176.037 353.701 176.037C352.312 176.037 351.097 175.8 350.056 175.326C349.015 174.851 348.211 174.192 347.644 173.347C347.077 172.503 346.794 171.548 346.794 170.484C346.794 168.818 347.413 167.482 348.651 166.475C349.888 165.469 351.838 164.966 354.499 164.966H359.288V164.688C359.288 163.392 358.901 162.397 358.126 161.703C357.351 161.009 356.199 160.662 354.672 160.662C353.631 160.662 352.607 160.824 351.601 161.148C350.594 161.472 349.744 161.923 349.05 162.501L347.349 159.343C348.321 158.602 349.489 158.036 350.854 157.642C352.22 157.249 353.666 157.052 355.193 157.052ZM354.603 172.879C355.69 172.879 356.656 172.63 357.501 172.133C358.346 171.635 358.941 170.924 359.288 169.998V167.846H354.811C352.312 167.846 351.063 168.668 351.063 170.31C351.063 171.097 351.375 171.722 352 172.185C352.625 172.647 353.492 172.879 354.603 172.879ZM382.577 171.699L383.792 174.788C383.283 175.204 382.664 175.517 381.935 175.725C381.206 175.933 380.437 176.037 379.627 176.037C377.591 176.037 376.018 175.505 374.907 174.441C373.796 173.376 373.241 171.826 373.241 169.79V160.87H370.187V157.399H373.241V153.165H377.579V157.399H382.543V160.87H377.579V169.686C377.579 170.588 377.799 171.277 378.239 171.751C378.678 172.225 379.315 172.462 380.148 172.462C381.12 172.462 381.929 172.208 382.577 171.699ZM390.838 175.794V157.26H395.176V175.794H390.838ZM393.024 154.206C392.238 154.206 391.578 153.957 391.046 153.46C390.514 152.963 390.248 152.344 390.248 151.603C390.248 150.863 390.514 150.244 391.046 149.746C391.578 149.249 392.238 149 393.024 149C393.811 149 394.47 149.237 395.003 149.712C395.535 150.186 395.801 150.782 395.801 151.499C395.801 152.263 395.541 152.905 395.02 153.425C394.499 153.946 393.834 154.206 393.024 154.206ZM412.669 176.037C410.795 176.037 409.106 175.632 407.602 174.822C406.098 174.013 404.923 172.885 404.079 171.438C403.234 169.992 402.812 168.355 402.812 166.527C402.812 164.699 403.234 163.068 404.079 161.634C404.923 160.199 406.098 159.077 407.602 158.267C409.106 157.457 410.795 157.052 412.669 157.052C414.566 157.052 416.267 157.457 417.771 158.267C419.275 159.077 420.449 160.199 421.294 161.634C422.138 163.068 422.561 164.699 422.561 166.527C422.561 168.355 422.138 169.992 421.294 171.438C420.449 172.885 419.275 174.013 417.771 174.822C416.267 175.632 414.566 176.037 412.669 176.037ZM412.669 172.324C414.265 172.324 415.584 171.791 416.626 170.727C417.667 169.663 418.187 168.263 418.187 166.527C418.187 164.792 417.667 163.392 416.626 162.328C415.584 161.263 414.265 160.731 412.669 160.731C411.072 160.731 409.759 161.263 408.73 162.328C407.7 163.392 407.185 164.792 407.185 166.527C407.185 168.263 407.7 169.663 408.73 170.727C409.759 171.791 411.072 172.324 412.669 172.324ZM440.713 157.052C443.05 157.052 444.924 157.735 446.335 159.1C447.747 160.465 448.452 162.49 448.452 165.174V175.794H444.114V165.729C444.114 164.109 443.732 162.889 442.969 162.067C442.205 161.246 441.118 160.835 439.706 160.835C438.11 160.835 436.849 161.315 435.923 162.276C434.997 163.236 434.535 164.618 434.535 166.423V175.794H430.196V157.26H434.326V159.655C435.044 158.799 435.946 158.151 437.034 157.712C438.121 157.272 439.347 157.052 440.713 157.052ZM464.522 157.052C467.252 157.052 469.341 157.706 470.787 159.013C472.233 160.321 472.956 162.293 472.956 164.931V175.794H468.861V173.538C468.328 174.348 467.571 174.967 466.587 175.395C465.604 175.823 464.418 176.037 463.03 176.037C461.641 176.037 460.427 175.8 459.385 175.326C458.344 174.851 457.54 174.192 456.973 173.347C456.406 172.503 456.123 171.548 456.123 170.484C456.123 168.818 456.742 167.482 457.98 166.475C459.218 165.469 461.167 164.966 463.828 164.966H468.618V164.688C468.618 163.392 468.23 162.397 467.455 161.703C466.68 161.009 465.529 160.662 464.001 160.662C462.96 160.662 461.936 160.824 460.93 161.148C459.923 161.472 459.073 161.923 458.379 162.501L456.678 159.343C457.65 158.602 458.818 158.036 460.184 157.642C461.549 157.249 462.995 157.052 464.522 157.052ZM463.932 172.879C465.02 172.879 465.986 172.63 466.83 172.133C467.675 171.635 468.271 170.924 468.618 169.998V167.846H464.14C461.641 167.846 460.392 168.668 460.392 170.31C460.392 171.097 460.704 171.722 461.329 172.185C461.954 172.647 462.821 172.879 463.932 172.879ZM481.98 175.794V150.041H486.319V175.794H481.98Z" fill="white"/>
</g>
<mask id="mask3_418_4" style="mask-type:luminance" maskUnits="userSpaceOnUse" x="219" y="43" width="378" height="90">
<path d="M596.052 43H219V132.742H596.052V43Z" fill="white"/>
</mask>
<g mask="url(#mask3_418_4)">
<path d="M282.139 132.105H271.828L250.57 104.101L229.184 132.105H219L245.478 97.736L220.273 65.149H230.457L250.57 91.3713L270.682 65.149H280.611L255.407 97.736L282.139 132.105ZM364.245 43H373.538V132.105H365.773L308.489 59.8027V132.105H299.069V43H306.835L364.245 115.302V43ZM428.021 132.742C421.571 132.742 415.758 131.278 410.581 128.35C405.404 125.422 401.331 121.37 398.361 116.193C395.39 111.017 393.905 105.161 393.905 98.627C393.905 92.0926 395.39 86.2372 398.361 81.0606C401.331 75.884 405.404 71.8531 410.581 68.9678C415.758 66.0825 421.571 64.6398 428.021 64.6398C434.47 64.6398 440.284 66.0825 445.46 68.9678C450.637 71.8531 454.689 75.884 457.617 81.0606C460.545 86.2372 462.009 92.0926 462.009 98.627C462.009 105.161 460.545 111.017 457.617 116.193C454.689 121.37 450.637 125.422 445.46 128.35C440.284 131.278 434.47 132.742 428.021 132.742ZM428.021 124.722C432.773 124.722 437.038 123.64 440.814 121.476C444.591 119.312 447.54 116.236 449.661 112.247C451.783 108.259 452.844 103.719 452.844 98.627C452.844 93.5353 451.783 88.9952 449.661 85.0067C447.54 81.0182 444.591 77.9419 440.814 75.7779C437.038 73.6139 432.773 72.532 428.021 72.532C423.268 72.532 419.004 73.6139 415.228 75.7779C411.451 77.9419 408.481 81.0182 406.317 85.0067C404.153 88.9952 403.071 93.5353 403.071 98.627C403.071 103.719 404.153 108.259 406.317 112.247C408.481 116.236 411.451 119.312 415.228 121.476C419.004 123.64 423.268 124.722 428.021 124.722ZM525.912 65.149H534.823L505.035 132.105H495.743L466.082 65.149H475.502L500.58 122.176L525.912 65.149ZM568.938 64.6398C577.679 64.6398 584.383 66.825 589.051 71.1954C593.718 75.5658 596.052 82.0365 596.052 90.6076V132.105H587.396V121.667C585.359 125.146 582.368 127.862 578.422 129.814C574.475 131.766 569.787 132.742 564.355 132.742C556.887 132.742 550.947 130.959 546.534 127.395C542.121 123.831 539.914 119.121 539.914 113.266C539.914 107.58 541.972 102.997 546.088 99.5181C550.204 96.0387 556.76 94.299 565.756 94.299H587.014V90.2257C587.014 84.4551 585.402 80.0635 582.177 77.0509C578.952 74.0383 574.242 72.532 568.047 72.532C563.804 72.532 559.73 73.2321 555.826 74.6323C551.923 76.0325 548.571 77.9631 545.77 80.4241L541.697 73.6776C545.091 70.7923 549.165 68.5647 553.917 66.9947C558.669 65.4248 563.676 64.6398 568.938 64.6398ZM565.756 125.613C570.847 125.613 575.218 124.446 578.867 122.113C582.516 119.779 585.232 116.406 587.014 111.993V101.046H566.01C554.553 101.046 548.825 105.034 548.825 113.011C548.825 116.915 550.31 119.991 553.281 122.24C556.251 124.489 560.409 125.613 565.756 125.613Z" fill="white"/>
</g>
</g>
</g>
<defs>
<clipPath id="clip0_418_4">
<rect width="633" height="223" fill="white"/>
</clipPath>
</defs>
</svg>
